<svg xmlns="http://www.w3.org/2000/svg" width="1280" height="390" viewBox="0 0 1280 390"><rect width="1280" height="390" rx="18" fill="#112733"/><text x="45" y="57" font-family="Arial,sans-serif" font-size="30" fill="#fff" font-weight="bold">TIDEMARK  /  RESEARCH TO ART DIRECTION</text><text x="45" y="88" font-family="Arial,sans-serif" font-size="18" fill="#acc4d0">October 2026  •  Technical self-audit, not Human Art approval</text><path d="M110 194H1170" fill="none" stroke="#477181" stroke-width="6"/><g font-family="Arial,sans-serif" font-size="18"><circle cx="110" cy="194" r="20" fill="#6fe6cd"/><text x="70" y="151" fill="#9ff5e8" font-weight="bold">G012</text><text x="35" y="244" fill="#fff">Settlement</text><text x="35" y="266" fill="#fff">visual blockout</text><text x="35" y="309" fill="#6fe6cd">RETAINED</text><circle cx="373" cy="194" r="14" fill="#f0b278"/><text x="336" y="151" fill="#fff">G014</text><text x="308" y="244" fill="#fff">Macro island</text><text x="308" y="266" fill="#fff">proposals</text><text x="308" y="309" fill="#fac999">NO KEEP</text><circle cx="639" cy="194" r="14" fill="#f0b278"/><text x="603" y="151" fill="#fff">G015</text><text x="571" y="244" fill="#fff">Coastal section</text><text x="571" y="266" fill="#fff">retopology</text><text x="571" y="309" fill="#fac999">RESEARCH</text><circle cx="901" cy="194" r="14" fill="#f0b278"/><text x="862" y="151" fill="#fff">G016</text><text x="840" y="244" fill="#fff">Seven modular</text><text x="840" y="266" fill="#fff">rock studies</text><text x="840" y="309" fill="#fac999">0 RETAINED</text><circle cx="1170" cy="194" r="14" fill="#f0b278"/><text x="1121" y="151" fill="#fff">G016.1</text><text x="1096" y="244" fill="#fff">Cliff +</text><text x="1096" y="266" fill="#fff">Shoulder</text><text x="1096" y="309" fill="#fac999">ART GATE FAIL</text></g><text x="45" y="359" fill="#9bbbc5" font-family="Arial,sans-serif" font-size="15">Original explanatory illustration, NOT an Unreal Engine or Blender screenshot.</text></svg>