<svg xmlns="http://www.w3.org/2000/svg" width="1600" height="900" viewBox="0 0 1600 900" role="img" aria-label="Iteration is a design decision">
<defs><linearGradient id="rock" x1="0" x2="1" y1="0" y2="1"><stop stop-color="#cad0cb"/><stop offset=".48" stop-color="#8c9c99"/><stop offset="1" stop-color="#415d69"/></linearGradient>
<linearGradient id="ocean" x1="0" y1="0" x2="0" y2="1"><stop stop-color="#3b9eac"/><stop offset="1" stop-color="#155260"/></linearGradient>
<linearGradient id="screen" x1="0" x2="1" y1="0" y2="1"><stop stop-color="#0a2130"/><stop offset="1" stop-color="#143e4d"/></linearGradient></defs>
<rect width="1600" height="900" fill="url(#screen)"/>
<rect x="65" y="48" width="1470" height="2" fill="#547b84"/>
<g font-family="Arial,Helvetica,sans-serif"><text x="70" y="93" font-size="20" font-weight="700" letter-spacing="4" fill="#7ee1cb">TIDEMARK  /  ENVIRONMENT ART R&amp;D</text>
<text x="70" y="166" font-size="54" font-weight="700" fill="#eef5f3">Iteration is a design decision</text><text x="70" y="210" font-size="23" fill="#a6c2c7">World layout → coastal geology → modular rock art · evidence-led development</text>
<text x="70" y="858" fill="#8daeb8" font-size="16">ORIGINAL EDITORIAL SCHEMATIC  •  NOT AN ACTUAL BLENDER / UE CAPTURE</text><text x="1520" y="858" text-anchor="end" fill="#7ee1cb" font-size="18">UE_TIDEMARK  /  2026</text></g><rect x="70" y="270" width="1460" height="476" rx="18" fill="#102e3d" stroke="#325968" stroke-width="2"/><path d="M180 514 H1420" stroke="#3b6171" stroke-width="7" stroke-linecap="round"/><circle cx="180" cy="514" r="22" fill="#7ee1cb"/><text x="125" y="390" font-size="31" font-family="Arial,Helvetica,sans-serif" font-weight="700" fill="#eef5f3">G012</text><text x="118" y="433" font-size="19" font-family="Arial,Helvetica,sans-serif" font-weight="500" fill="#9cb8c0">Integrated scene</text><rect x="88" y="581" width="184" height="43" rx="21" fill="#20404b" stroke="#7ee1cb"/><text x="102" y="609" font-size="17" font-family="Arial,Helvetica,sans-serif" font-weight="700" fill="#7ee1cb">RETAINED</text><circle cx="480" cy="514" r="15" fill="#f0be87"/><text x="425" y="390" font-size="31" font-family="Arial,Helvetica,sans-serif" font-weight="700" fill="#eef5f3">G014</text><text x="418" y="433" font-size="19" font-family="Arial,Helvetica,sans-serif" font-weight="500" fill="#9cb8c0">Island proposals</text><rect x="388" y="581" width="184" height="43" rx="21" fill="#20404b" stroke="#f0be87"/><text x="402" y="609" font-size="17" font-family="Arial,Helvetica,sans-serif" font-weight="700" fill="#f0be87">NO KEEP</text><circle cx="780" cy="514" r="15" fill="#f0be87"/><text x="725" y="390" font-size="31" font-family="Arial,Helvetica,sans-serif" font-weight="700" fill="#eef5f3">G015</text><text x="718" y="433" font-size="19" font-family="Arial,Helvetica,sans-serif" font-weight="500" fill="#9cb8c0">Coastal sections</text><rect x="688" y="581" width="184" height="43" rx="21" fill="#20404b" stroke="#f0be87"/><text x="702" y="609" font-size="17" font-family="Arial,Helvetica,sans-serif" font-weight="700" fill="#f0be87">RESEARCH</text><circle cx="1080" cy="514" r="15" fill="#f0be87"/><text x="1025" y="390" font-size="31" font-family="Arial,Helvetica,sans-serif" font-weight="700" fill="#eef5f3">G016</text><text x="1018" y="433" font-size="19" font-family="Arial,Helvetica,sans-serif" font-weight="500" fill="#9cb8c0">Rock kit study</text><rect x="988" y="581" width="184" height="43" rx="21" fill="#20404b" stroke="#f0be87"/><text x="1002" y="609" font-size="17" font-family="Arial,Helvetica,sans-serif" font-weight="700" fill="#f0be87">0 KEPT</text><circle cx="1420" cy="514" r="15" fill="#f0be87"/><text x="1365" y="390" font-size="31" font-family="Arial,Helvetica,sans-serif" font-weight="700" fill="#eef5f3">G016.1</text><text x="1358" y="433" font-size="19" font-family="Arial,Helvetica,sans-serif" font-weight="500" fill="#9cb8c0">Cliff + Shoulder</text><rect x="1328" y="581" width="184" height="43" rx="21" fill="#20404b" stroke="#f0be87"/><text x="1342" y="609" font-size="17" font-family="Arial,Helvetica,sans-serif" font-weight="700" fill="#f0be87">ART GATE FAIL</text><rect x="106" y="666" width="1393" height="48" rx="18" fill="#102e3d" stroke="#325968" stroke-width="2"/><text x="132" y="697" font-size="18" font-family="Arial,Helvetica,sans-serif" font-weight="700" fill="#7ee1cb">WHAT WAS KEPT</text><text x="378" y="697" font-size="22" font-family="Arial,Helvetica,sans-serif" font-weight="500" fill="#eef5f3">A reproducible art-validation pipeline, not a pile of unapproved meshes.</text></svg>